<svg width="512" height="512" viewBox="0 0 100 100" fill="none" xmlns="http://www.w3.org/2000/svg">
  <rect width="100" height="100" rx="22" fill="#171717"/>
  <defs>
    <radialGradient id="n" cx="38%" cy="32%" r="65%">
      <stop offset="0%" stop-color="#d8b4fe"/>
      <stop offset="40%" stop-color="#a855f7"/>
      <stop offset="100%" stop-color="#7e22ce"/>
    </radialGradient>
    <radialGradient id="s" cx="40%" cy="30%" r="50%">
      <stop offset="0%" stop-color="#fff" stop-opacity="0.35"/>
      <stop offset="100%" stop-color="#fff" stop-opacity="0"/>
    </radialGradient>
    <linearGradient id="e" x1="0%" y1="0%" x2="100%" y2="100%">
      <stop offset="0%" stop-color="#c084fc"/>
      <stop offset="100%" stop-color="#7c3aed"/>
    </linearGradient>
  </defs>
  <!-- Edges -->
  <g stroke="url(#e)" stroke-width="3.5" stroke-linecap="round" opacity="0.85">
    <line x1="28" y1="18" x2="28" y2="50"/>
    <line x1="28" y1="50" x2="28" y2="82"/>
    <line x1="28" y1="50" x2="48" y2="50"/>
    <line x1="48" y1="50" x2="63" y2="35"/>
    <line x1="63" y1="35" x2="78" y2="18"/>
    <line x1="48" y1="50" x2="63" y2="65"/>
    <line x1="63" y1="65" x2="78" y2="82"/>
  </g>
  <!-- Nodes -->
  <g>
    <circle cx="28" cy="18" r="7" fill="url(#n)"/><circle cx="28" cy="18" r="7" fill="url(#s)"/>
    <circle cx="28" cy="50" r="7" fill="url(#n)"/><circle cx="28" cy="50" r="7" fill="url(#s)"/>
    <circle cx="28" cy="82" r="7" fill="url(#n)"/><circle cx="28" cy="82" r="7" fill="url(#s)"/>
    <circle cx="48" cy="50" r="7" fill="url(#n)"/><circle cx="48" cy="50" r="7" fill="url(#s)"/>
    <circle cx="63" cy="35" r="7" fill="url(#n)"/><circle cx="63" cy="35" r="7" fill="url(#s)"/>
    <circle cx="78" cy="18" r="7" fill="url(#n)"/><circle cx="78" cy="18" r="7" fill="url(#s)"/>
    <circle cx="63" cy="65" r="7" fill="url(#n)"/><circle cx="63" cy="65" r="7" fill="url(#s)"/>
    <circle cx="78" cy="82" r="7" fill="url(#n)"/><circle cx="78" cy="82" r="7" fill="url(#s)"/>
  </g>
</svg>
